<?xml version="1.0" encoding="UTF-8"?>
<svg width="16px" height="16px" viewBox="0 0 16 16" version="1.1" xmlns="http://www.w3.org/2000/svg" xmlns:xlink="http://www.w3.org/1999/xlink">
    <title>cart_icon_del</title>
    <desc>Created with Sketch.</desc>
    <g id="购物车" stroke="none" stroke-width="1" fill="none" fill-rule="evenodd">
        <g transform="translate(-274.000000, -838.000000)">
            <rect fill="#F7F7F7" x="0" y="0" width="375" height="1146"></rect>
            <g id="3" transform="translate(0.000000, 820.000000)">
                <g id="编组-11">
                    <path d="M8,0 L367,0 C371.418278,-8.11624501e-16 375,3.581722 375,8 L375,46 L375,46 L0,46 L0,8 C-5.41083001e-16,3.581722 3.581722,8.11624501e-16 8,0 Z" id="矩形备份-8" fill="#FFFFFF"></path>
                    <g id="编组" transform="translate(274.000000, 18.000000)">
                        <g id="icon/删除">
                            <rect id="矩形" fill="#FFFFFF" x="0" y="0" width="16" height="16"></rect>
                            <path d="M12.2674288,5.20078144 C12.5074874,5.20078144 12.7035352,5.3800252 12.7035352,5.60087912 L12.7035352,12.8026374 C12.702735,13.4651991 12.116992,14.0029304 11.3944156,14.0029304 L4.41031053,14.0029304 C3.68773412,14.0029304 3.10199112,13.4651991 3.10119092,12.8026374 L3.10119092,5.60087912 C3.10119092,5.3800252 3.29643859,5.20078144 3.53729738,5.20078144 C3.77895638,5.20078144 3.97420405,5.3800252 3.97420405,5.60087912 L3.97420405,12.8026374 C3.97420405,13.0234913 4.16945172,13.202735 4.41031053,13.202735 L11.3944156,13.202735 C11.6344742,13.202735 11.8305221,13.0234913 11.8305221,12.8026374 L11.8305221,5.60087912 C11.8305221,5.3800252 12.0257698,5.20078144 12.2674288,5.20078144 Z M10.0356839,6.0009768 C10.2709413,6.0009768 10.462188,6.18022055 10.462188,6.40107448 L10.462188,12.002442 C10.462188,12.2232959 10.2709414,12.4025397 10.0356839,12.4025397 C9.79962627,12.4025397 9.60837958,12.2232959 9.60837958,12.002442 L9.60837958,6.40107448 C9.60837958,6.18022057 9.80042647,6.0009768 10.0356839,6.0009768 Z M5.76744185,6.0009768 C6.00349949,6.0009768 6.19474617,6.18022055 6.19474617,6.40107448 L6.19474617,12.002442 C6.19474617,12.2232959 6.00269929,12.4025397 5.76744185,12.4025397 C5.53218442,12.4025397 5.34093773,12.2232959 5.34093773,12.002442 L5.34093773,6.40107448 C5.34093773,6.18022057 5.53218442,6.0009768 5.76744185,6.0009768 Z M7.90156288,6.0009768 C8.13762051,6.0009768 8.32806701,6.18022055 8.32806701,6.40107448 L8.32806701,12.002442 C8.32806701,12.2232959 8.13762051,12.4025397 7.90156288,12.4025397 C7.66550524,12.4025397 7.47505875,12.2232959 7.47505875,12.002442 L7.47505875,6.40107448 C7.47505875,6.18022057 7.66550525,6.0009768 7.90156288,6.0009768 Z M9.64758916,2 C10.3701656,2 10.9559086,2.53773128 10.9567088,3.20029304 L10.956,3.6 L13.0228132,3.60039072 C13.7293857,3.60039072 14.3023256,4.138122 14.3031258,4.80068376 C14.3031258,5.02153768 14.1118791,5.20078144 13.8766216,5.20078144 C13.640564,5.20078144 13.4493173,5.02153769 13.4493173,4.80068376 C13.4493173,4.57982983 13.2580706,4.40058608 13.0228132,4.40058608 L2.78031258,4.40058608 C2.54505514,4.40058608 2.35380846,4.57982984 2.35380845,4.80068376 C2.35380843,5.02153768 2.16176156,5.20078144 1.92650412,5.20078144 C1.69204689,5.20078144 1.5,5.02153768 1.5,4.80068376 C1.5008002,4.138122 2.07374007,3.60039072 2.78031258,3.60039072 L4.846,3.6 L4.846417,3.20029304 C4.846417,2.53773128 5.4329602,2 6.15553661,2 L9.64758916,2 Z M9.64758916,2.80019536 L6.15553661,2.80019536 C5.915478,2.80019536 5.71943014,2.97943912 5.71943013,3.20029304 L5.719,3.6 L10.083,3.6 L10.0836956,3.20029304 C10.0836956,2.97943912 9.88844795,2.80019536 9.64758916,2.80019536 Z" id="Combined-Shape" fill="#818999" fill-rule="nonzero"></path>
                        </g>
                    </g>
                </g>
            </g>
        </g>
    </g>
</svg>